<?xml version="1.0" encoding="UTF-8"?>
<!DOCTYPE svg PUBLIC "-//W3C//DTD SVG 1.1//EN" "http://www.w3.org/Graphics/SVG/1.1/DTD/svg11.dtd">
<!-- Creator: CorelDRAW -->
<svg xmlns="http://www.w3.org/2000/svg" xml:space="preserve" width="4.90791in" height="1.24112in" version="1.1" style="shape-rendering:geometricPrecision; text-rendering:geometricPrecision; image-rendering:optimizeQuality; fill-rule:evenodd; clip-rule:evenodd"
viewBox="0 0 1827.9 462.24"
 xmlns:xlink="http://www.w3.org/1999/xlink"
 xmlns:xodm="http://www.corel.com/coreldraw/odm/2003">
 <defs>
  <style type="text/css">
   <![CDATA[
    .fil4 {fill:none}
    .fil0 {fill:#A073F0}
    .fil1 {fill:#A073F0;fill-rule:nonzero}
    .fil3 {fill:#FEFEFE;fill-rule:nonzero}
    .fil2 {fill:url(#id1)}
   ]]>
  </style>
    <clipPath id="id0">
     <path d="M76.92 0l435.34 0c42.31,0 76.92,34.61 76.92,76.92l0 308.4c0,42.31 -34.62,76.92 -76.92,76.92l-435.34 0c-42.31,0 -76.92,-34.61 -76.92,-76.92l0 -308.4c0,-42.31 34.62,-76.92 76.92,-76.92z"/>
    </clipPath>
  <linearGradient id="id1" gradientUnits="userSpaceOnUse" x1="203.65" y1="7.87" x2="384.67" y2="456.49">
   <stop offset="0" style="stop-opacity:1; stop-color:#A073F0"/>
   <stop offset="1" style="stop-opacity:1; stop-color:#636AD8"/>
  </linearGradient>
 </defs>
 <g id="Layer_x0020_1">
  <metadata id="CorelCorpID_0Corel-Layer"/>
  <g id="_2199533231040">
   <g>
    <path class="fil0" d="M732.24 181.16l30.32 0 0 -12.48 -73.82 0 0 12.48 30.15 0 0 120.95 13.34 0 0 -120.95 -0 0zm400.52 63.94l-194.27 0 0 12.13 194.27 0 4.34 0 18.62 0 0 -7.1c0,-12.31 -4.67,-23.39 -14.04,-33.27 -9.7,-10.05 -21.14,-15.42 -34.31,-16.29 -14.73,-0.87 -27.38,4.16 -38.29,14.9 -7.15,7.04 -11.86,15.08 -14.09,24.03l13.52 0c2.32,-6.84 6.21,-12.56 11.83,-17.09 7.1,-5.72 15.42,-8.67 24.95,-8.49 9.53,0.18 17.68,3.12 24.43,8.83 6.76,5.72 11.09,13.17 13,22.35l-5.63 0 -4.34 0 0 -0zm-93.3 -74.26l0 68.65 -12.96 0 0 -50.78 -0.04 0 0 -17.87 13 0 0 -0zm-0.63 92c-1.65,10.23 -6.5,19.33 -14.62,27.32 -10.57,10.22 -22.87,15.25 -37.08,14.73 -13.68,-0.34 -25.47,-5.55 -35,-15.59 -7.3,-7.69 -11.75,-16.52 -13.44,-26.44l13.55 0c1.54,6.2 4.62,11.84 9.24,16.92 7.1,7.8 15.59,11.79 25.82,12.13 10.91,0.52 20.1,-3.12 27.72,-11.26 5.13,-5.37 8.47,-11.26 10.04,-17.79l13.75 0 0.02 -0.01zm-100.33 -1.26c-0.05,-0.34 -0.1,-0.69 -0.14,-1.02l0.14 0 0 1.02zm1.21 -22.09c2.31,-8.64 6.88,-16.39 13.65,-23.16 10.22,-10.4 22.53,-15.42 36.74,-14.9 8.46,0.3 16.1,2.42 22.92,6.32l0 15.78c-6.68,-6.11 -14.52,-9.1 -23.79,-9.1 -10.4,-0.18 -19.41,3.64 -26.86,11.09 -4.2,4.2 -7.18,8.83 -9.02,13.97l-13.63 0 -0.01 0.01zm-155.13 3.53c0,-6.42 1.04,-11.43 3.3,-15.25 1.39,-2.25 3.98,-5.03 7.79,-8.15 3.82,-3.12 8.83,-4.85 14.9,-5.03l0 -13.17c-5.2,-0.18 -10.22,1.04 -15.25,3.64 -5.37,2.94 -9.53,6.94 -12.3,12.3l0 -14.03 -12.3 0 0 98.76 13.86 0 0 -59.09 -0.01 0.01zm137.58 10.22l0 -0.69c0.52,-13.68 -4.16,-25.65 -13.86,-35.69 -9.7,-10.22 -21.48,-15.42 -35.35,-15.94 -14.38,-0.52 -26.68,4.33 -36.91,14.73 -10.22,10.22 -15.42,22.7 -15.42,37.08 0,13.86 4.85,25.82 14.38,35.87 9.53,10.05 21.14,15.25 34.83,15.77 15.59,0.52 28.76,-5.37 39.51,-17.67l0 15.42 12.82 0 0 -48.87 0 -0.01zm-76.93 -28.41c7.45,-7.45 16.29,-11.09 26.86,-11.09 10.05,0 18.71,3.64 25.81,11.09 7.1,7.45 10.92,16.29 11.09,26.68 0.18,10.92 -3.46,20.44 -11.26,28.59 -7.62,7.97 -16.8,11.79 -27.72,11.26 -10.05,-0.52 -18.71,-4.51 -25.82,-12.31 -7.1,-7.79 -10.4,-16.98 -10.22,-27.38 0.18,-10.57 3.82,-19.41 11.26,-26.86l-0 0.01zm294.05 44.88c-6.76,14.21 -17.85,21.49 -33.44,21.66 -10.05,0.18 -18.71,-3.12 -26.17,-9.53 -5.99,-5.16 -9.86,-11.55 -11.68,-19l-13.56 0c1.95,10.13 6.99,19.07 15.02,26.97 10.4,10.05 22.35,14.9 35.87,14.73 10.74,-0.18 20.44,-3.3 29.29,-9.53 8.83,-6.24 15.07,-14.73 18.71,-25.29l-14.04 0 -0.01 -0z"/>
    <path class="fil1" d="M1176.05 252.54c-0.34,14.21 4.68,26.51 15.25,36.9 10.57,10.4 22.87,15.43 37.08,14.9 13.68,-0.52 25.47,-5.72 35,-15.77 9.53,-10.05 14.38,-22.01 14.38,-35.87 0,-14.38 -5.2,-26.68 -15.59,-37.08 -10.22,-10.4 -22.53,-15.25 -36.74,-14.73 -8.44,0.3 -16.08,2.35 -22.88,6.22l0 15.67c6.7,-6.09 14.66,-9.07 23.75,-9.07 10.57,0 19.41,3.81 26.68,11.26 7.45,7.45 11.26,16.29 11.43,26.68 0.18,10.57 -3.3,19.58 -10.4,27.38 -7.1,7.8 -15.59,11.79 -25.82,12.31 -10.74,0.52 -19.92,-3.3 -27.72,-11.26 -7.17,-7.49 -10.82,-16.14 -11.1,-25.97l-0.34 0 0 -35.71 0 -29.7 0 -17.87 -13 0 0 81.02 0 0.69 0.01 0zm482.46 -82.39l-6.4 0 12.82 -12.82 12.82 12.82 -5.96 0 0 83.09c0.34,14.21 -4.67,26.51 -15.25,36.91 -10.57,10.22 -22.87,15.25 -37.08,14.73 -13.68,-0.34 -25.47,-5.55 -35,-15.59 -9.53,-10.05 -14.21,-22.01 -14.21,-35.87 0,-14.38 5.2,-26.86 15.42,-37.08 10.22,-10.4 22.53,-15.42 36.74,-14.9 8.44,0.3 16.08,2.41 22.88,6.3l0 15.76c-6.67,-6.08 -14.5,-9.06 -23.75,-9.06 -10.4,-0.18 -19.41,3.64 -26.86,11.09 -7.45,7.45 -11.09,16.29 -11.26,26.86 -0.18,10.4 3.3,19.58 10.4,27.38 7.1,7.8 15.59,11.79 25.82,12.13 10.91,0.52 20.1,-3.12 27.72,-11.26 6.85,-7.15 10.49,-15.25 11.04,-24.52l0.39 0 0 -37.18 0 0 0 -48.79 -0.28 0 0.01 0.01zm-267.77 82.57c0,-13.86 -4.85,-25.82 -14.38,-35.87 -9.53,-10.22 -21.31,-15.42 -35,-15.94 -14.21,-0.52 -26.51,4.51 -36.74,14.9 -10.22,10.22 -15.42,22.7 -15.42,37.08 0,13.86 4.67,25.82 14.21,35.87 9.53,10.05 21.31,15.25 35,15.59 14.21,0.52 26.51,-4.51 36.74,-14.73 10.4,-10.4 15.59,-22.7 15.59,-36.9l0 -0.01zm-77.98 26.51c-7.1,-7.79 -10.4,-16.98 -10.22,-27.38 0.18,-10.57 3.82,-19.41 11.26,-26.86 7.45,-7.45 16.29,-11.26 26.86,-11.09 10.05,0 18.54,3.64 25.65,11.09 7.1,7.45 10.92,16.29 11.26,26.68 0.18,10.91 -3.46,20.28 -11.26,28.41 -7.62,8.15 -16.8,11.79 -27.72,11.26 -10.22,-0.34 -18.71,-4.33 -25.82,-12.13l-0.01 0.01zm192.68 -25.99l0 -0.69c0.52,-13.68 -4.16,-25.65 -13.86,-35.69 -9.7,-10.22 -21.49,-15.42 -35.35,-15.94 -14.38,-0.52 -26.68,4.33 -36.9,14.73 -10.22,10.22 -15.42,22.7 -15.42,37.08 0,13.86 4.85,25.82 14.38,35.87 9.53,10.05 21.14,15.25 34.83,15.77 15.59,0.52 28.77,-5.37 39.51,-17.67l0 15.42 12.82 0 0 -48.87 -0.01 -0.01zm-76.93 -28.41c7.45,-7.45 16.29,-11.09 26.86,-11.09 10.05,0 18.71,3.64 25.82,11.09 7.1,7.45 10.92,16.29 11.09,26.68 0.18,10.92 -3.46,20.44 -11.26,28.59 -7.62,7.97 -16.8,11.79 -27.72,11.26 -10.05,-0.52 -18.71,-4.51 -25.82,-12.31 -7.1,-7.79 -10.4,-16.98 -10.22,-27.38 0.18,-10.57 3.82,-19.41 11.26,-26.86l-0 0.01zm103.61 18.19c0,-6.42 1.04,-11.43 3.3,-15.25 1.39,-2.25 3.98,-5.03 7.79,-8.15 3.82,-3.12 8.83,-4.85 14.9,-5.03l0 -13.17c-5.2,-0.18 -10.22,1.04 -15.25,3.64 -5.37,2.94 -9.53,6.94 -12.3,12.3l0 -14.03 -12.3 0 0 98.76 13.86 0 0 -59.09 -0.01 0.01zm166.87 37.77l-13.17 0 0 23.05 13.17 0 0 -23.05zm27.2 -112.11l-13 0 0 23.04 13 0 0 -23.04zm0 34.65l-13 0 0 98.76 13 0 0 -98.76zm101.72 42.45c0,-12.82 -4.16,-23.39 -12.48,-31.88 -8.31,-8.49 -18.71,-12.82 -31.19,-12.82 -12.65,0 -23.04,4.33 -31.36,12.82 -8.32,8.49 -12.48,19.06 -12.48,31.88l0 56.31 13.34 0 0 -57.7c0,-8.31 2.95,-15.42 9.01,-21.49 6.07,-6.06 13.34,-9.01 21.49,-9.01 8.15,0 15.07,2.94 21.14,9.01 6.07,6.06 9.18,13.17 9.18,21.49l0 57.7 13.34 0 0 -56.31 0 0z"/>
   </g>
   <path class="fil2" d="M76.92 0l435.34 0c42.31,0 76.92,34.61 76.92,76.92l0 308.4c0,42.31 -34.62,76.92 -76.92,76.92l-435.34 0c-42.31,0 -76.92,-34.61 -76.92,-76.92l0 -308.4c0,-42.31 34.62,-76.92 76.92,-76.92z"/>
   <g>
   </g>
   <g style="clip-path:url(#id0)">
    <g>
     <path id="_1" class="fil3" d="M345.26 370.58c-21.45,0 -40.99,-5.21 -58.64,-15.76 -17.59,-10.55 -31.63,-24.53 -42,-42 -5.35,-9.05 -9.36,-18.63 -12.02,-28.76l41.63 0c1.28,3.04 2.76,5.98 4.46,8.84 6.94,11.67 16.17,20.91 27.84,27.84 11.61,6.87 24.53,10.31 38.74,10.31 14.22,0 27.19,-3.43 38.8,-10.31 11.67,-6.94 20.91,-16.17 27.84,-27.84 1.69,-2.86 3.18,-5.81 4.46,-8.84l41.8 0c-2.64,10 -6.64,19.51 -12.02,28.51 -10.49,17.65 -24.64,31.69 -42.29,42.24 -17.71,10.55 -37.26,15.76 -58.59,15.76l0 0.01zm-196.19 -479.14l39.75 0 0 336.87 -39.75 0 0 -336.87zm39.75 392.65l0 11.95c0,14.33 3.61,27.31 10.43,38.86 6.81,11.55 16.05,20.8 27.72,27.72 11.6,6.88 24.53,10.31 38.74,10.31l0 39.51c-21.33,0 -40.77,-5.2 -58.41,-15.64 -17.66,-10.46 -31.67,-24.48 -42.12,-41.94 -10.46,-17.48 -16.11,-36.96 -16.11,-58.41l0 -12.37 39.75 0zm39.81 -55.77l0 -336.87 39.75 0 0 275.15c10.31,-9.24 21.98,-16.41 35.12,-21.56 13.09,-5.16 27.02,-7.7 41.76,-7.7 21.33,0 40.87,5.21 58.59,15.76 17.65,10.55 31.81,24.64 42.29,42.35 6.16,10.35 10.52,21.3 13.09,32.88l-41.21 0c-1.58,-4.55 -3.62,-8.93 -6.11,-13.15 -6.94,-11.61 -16.17,-20.91 -27.84,-27.78 -11.61,-6.94 -24.59,-10.37 -38.8,-10.37 -14.22,0 -27.13,3.43 -38.74,10.37 -11.67,6.87 -20.91,16.17 -27.84,27.78 -2.49,4.22 -4.52,8.61 -6.11,13.15l-43.95 0 0.01 -0.01z"/>
    </g>
   </g>
   <path class="fil4" d="M76.92 0l435.34 0c42.31,0 76.92,34.61 76.92,76.92l0 308.4c0,42.31 -34.62,76.92 -76.92,76.92l-435.34 0c-42.31,0 -76.92,-34.61 -76.92,-76.92l0 -308.4c0,-42.31 34.62,-76.92 76.92,-76.92z"/>
   <path class="fil4" d="M76.92 0l435.34 0c42.31,0 76.92,34.61 76.92,76.92l0 308.4c0,42.31 -34.62,76.92 -76.92,76.92l-435.34 0c-42.31,0 -76.92,-34.61 -76.92,-76.92l0 -308.4c0,-42.31 34.62,-76.92 76.92,-76.92z"/>
  </g>
 </g>
</svg>
