<svg width="216" height="184" viewBox="0 0 216 184" fill="none" xmlns="http://www.w3.org/2000/svg">
<path opacity="0.1" d="M215.01 126.863C209.11 97.1372 174.547 73.3795 167.805 42.4033C155.553 2.9932 115.169 -3.23762 88.9261 13.8782C47.3447 40.9984 91.7035 47.7284 10.1758 111.893C-9.95524 127.737 -3.54059 197.674 59.7904 181.624C93.8724 172.986 104.233 171.774 119.563 170.352C158.204 166.767 224.913 176.761 215.01 126.863Z" fill="#A073F0"/>
<path d="M168.848 134.313L109.126 165.83L49.4932 134.313V86.7192H168.848V134.313Z" fill="white"/>
<path d="M109.126 166.313C109.047 166.313 108.969 166.294 108.899 166.257L49.2685 134.74C49.191 134.699 49.126 134.638 49.0806 134.563C49.0352 134.488 49.0111 134.402 49.0107 134.314V86.7192C49.0107 86.591 49.0617 86.4681 49.1524 86.3774C49.2432 86.2868 49.3662 86.2358 49.4945 86.2358H168.848C168.977 86.2358 169.1 86.2868 169.19 86.3774C169.281 86.4681 169.332 86.591 169.332 86.7192V134.313C169.332 134.4 169.308 134.486 169.262 134.561C169.217 134.636 169.152 134.697 169.074 134.738L109.352 166.256C109.282 166.293 109.204 166.313 109.126 166.313ZM49.9768 134.022L109.126 165.283L168.364 134.022V87.2026H49.9768V134.022Z" fill="#262626"/>
<path d="M168.849 76.5065L109.126 44.9893L135.963 32.064L195.686 63.5815L168.849 76.5065Z" fill="white"/>
<path d="M168.849 76.99C168.77 76.99 168.693 76.9709 168.623 76.9343L108.9 45.4168C108.821 45.3749 108.755 45.312 108.71 45.2349C108.664 45.1579 108.641 45.0697 108.643 44.9803C108.644 44.8909 108.671 44.8037 108.719 44.7283C108.767 44.653 108.835 44.5925 108.916 44.5536L135.753 31.6283C135.821 31.5952 135.896 31.5788 135.972 31.5802C136.048 31.5816 136.122 31.6008 136.189 31.6364L195.912 63.154C195.991 63.1958 196.057 63.2587 196.103 63.3357C196.148 63.4127 196.171 63.5008 196.17 63.5903C196.168 63.6797 196.142 63.7669 196.093 63.8422C196.045 63.9175 195.977 63.9779 195.896 64.0168L169.059 76.9421C168.994 76.9737 168.922 76.9901 168.849 76.99ZM110.199 45.0084L168.859 75.9644L194.613 63.5612L135.953 32.6059L110.199 45.0084Z" fill="#262626"/>
<path d="M49.4934 76.5065L109.216 44.9893L82.379 32.064L22.6562 63.5815L49.4934 76.5065Z" fill="white"/>
<path d="M49.4931 76.99C49.4204 76.99 49.3485 76.9736 49.283 76.9421L22.4474 64.0168C22.3668 63.9779 22.2986 63.9175 22.2503 63.8422C22.202 63.7669 22.1756 63.6797 22.1739 63.5902C22.1723 63.5008 22.1955 63.4127 22.241 63.3357C22.2864 63.2587 22.3524 63.1958 22.4316 63.154L82.1543 31.6364C82.2212 31.6008 82.2956 31.5816 82.3714 31.5802C82.4472 31.5788 82.5223 31.5952 82.5905 31.6283L109.428 44.5536C109.508 44.5925 109.576 44.653 109.625 44.7283C109.673 44.8036 109.699 44.8909 109.701 44.9803C109.703 45.0697 109.679 45.1579 109.634 45.2349C109.589 45.312 109.523 45.3749 109.443 45.4168L49.7207 76.9343C49.6506 76.9712 49.5724 76.9903 49.4931 76.99ZM23.7293 63.562L49.4831 75.9652L108.143 45.0092L82.3888 32.6059L23.7293 63.562Z" fill="#262626"/>
<path d="M49.4935 76.5068L109.216 108.024L78.5089 124.817L18.7861 93.2993L49.4935 76.5068Z" fill="white"/>
<path d="M78.5086 125.3C78.4298 125.3 78.3522 125.281 78.2826 125.244L18.5599 93.7261C18.4828 93.6853 18.4181 93.6243 18.3729 93.5498C18.3276 93.4752 18.3034 93.3898 18.3027 93.3026C18.3021 93.2154 18.3251 93.1296 18.3693 93.0544C18.4134 92.9792 18.4772 92.9173 18.5537 92.8753L49.2611 76.0829C49.3312 76.0444 49.4098 76.024 49.4898 76.0234C49.5698 76.0229 49.6487 76.0423 49.7193 76.0798L109.442 107.597C109.519 107.638 109.584 107.699 109.629 107.774C109.674 107.848 109.699 107.934 109.699 108.021C109.7 108.108 109.677 108.194 109.633 108.269C109.588 108.344 109.525 108.406 109.448 108.448L78.7408 125.241C78.6696 125.279 78.5898 125.3 78.5086 125.3ZM19.8076 93.2915L78.5044 124.268L108.195 108.032L49.4976 77.0555L19.8076 93.2915Z" fill="#262626"/>
<path d="M168.849 76.5068L109.126 108.024L139.833 124.817L199.556 93.2993L168.849 76.5068Z" fill="white"/>
<path d="M139.834 125.3C139.753 125.3 139.673 125.279 139.602 125.241L108.894 108.448C108.818 108.406 108.754 108.344 108.71 108.269C108.666 108.194 108.643 108.108 108.644 108.021C108.644 107.934 108.668 107.848 108.714 107.774C108.759 107.699 108.824 107.638 108.901 107.597L168.623 76.0798C168.694 76.0423 168.773 76.0229 168.853 76.0234C168.933 76.024 169.012 76.0444 169.082 76.0829L199.789 92.8753C199.866 92.9173 199.929 92.9792 199.973 93.0544C200.018 93.1296 200.041 93.2154 200.04 93.3026C200.039 93.3898 200.015 93.4752 199.97 93.5498C199.925 93.6243 199.86 93.6853 199.783 93.7261L140.06 125.244C139.991 125.281 139.913 125.3 139.834 125.3ZM110.149 108.032L139.839 124.268L198.536 93.2915L168.846 77.0555L110.149 108.032Z" fill="#262626"/>
<path d="M109.216 44.9893L49.4932 76.5065L109.126 108.024L168.848 76.5065L109.216 44.9893Z" fill="#A073F0"/>
<path d="M109.609 108.024H108.642V165.83H109.609V108.024Z" fill="#262626"/>
<path d="M75.6646 73.6452C75.5845 73.6453 75.5064 73.6203 75.4413 73.5737C75.3575 73.5144 75.3008 73.4243 75.2835 73.3232C75.2662 73.2221 75.2898 73.1183 75.3492 73.0346C75.4208 72.9337 82.4156 62.8295 74.6068 53.6178C73.2248 51.979 71.5007 50.6619 69.5555 49.759C67.6103 48.8561 65.491 48.3892 63.3462 48.391H63.2409C63.9824 50.965 63.8501 53.2536 62.8001 55.0093C62.3527 55.8026 61.6924 56.4554 60.8938 56.894C60.0951 57.3327 59.1897 57.5398 58.2795 57.492C57.5262 57.4303 56.8071 57.1505 56.2105 56.6867C55.6139 56.2229 55.1656 55.5954 54.9205 54.8809C54.0617 52.6425 54.9592 50.4723 57.3247 49.0735C58.8233 48.2478 60.4885 47.7692 62.1971 47.6732C61.6412 46.2007 60.9185 44.7967 60.0429 43.4885C57.2233 39.1859 52.0847 36.2074 45.9441 35.3168C40.7401 34.5623 35.7528 35.451 33.2367 37.5802C33.1583 37.6465 33.0568 37.6789 32.9545 37.6704C32.8522 37.6619 32.7575 37.6131 32.6912 37.5348C32.6249 37.4565 32.5924 37.3551 32.6009 37.2528C32.6095 37.1506 32.6583 37.056 32.7367 36.9897C35.4141 34.7239 40.6418 33.766 46.0552 34.5534C52.4153 35.4761 57.7493 38.5787 60.6908 43.0666C61.6444 44.4899 62.4201 46.0245 63.0006 47.6361C65.3143 47.5806 67.611 48.0444 69.7216 48.9934C71.8321 49.9425 73.7027 51.3525 75.1955 53.1198C83.3979 62.7951 76.0536 73.378 75.9785 73.484C75.9427 73.5338 75.8956 73.5744 75.841 73.6024C75.7864 73.6305 75.726 73.6451 75.6646 73.6452ZM62.4483 48.4192C60.7917 48.4898 59.1738 48.9416 57.7207 49.7394C55.6787 50.9468 54.9224 52.7203 55.645 54.6044C55.8408 55.1817 56.2008 55.6894 56.6808 56.0655C57.1609 56.4416 57.7403 56.6698 58.3481 56.722C59.1133 56.7563 59.873 56.5772 60.5423 56.2047C61.2115 55.8322 61.7638 55.2811 62.1375 54.6129C63.1012 53.0003 63.1894 50.8567 62.4471 48.4192H62.4483Z" fill="#292A2E"/>
<path d="M26.5566 43.8152C25.8989 44.0126 25.19 43.9457 24.581 43.6287C23.9719 43.3117 23.5107 42.7697 23.2957 42.118C23.0806 41.4663 23.1286 40.7565 23.4295 40.1397C23.7303 39.5229 24.2603 39.0478 24.9065 38.8155C25.5527 38.5833 26.2642 38.6123 26.8893 38.8964C27.5144 39.1804 28.0039 39.6971 28.2535 40.3364C28.5031 40.9756 28.493 41.687 28.2255 42.319C27.958 42.951 27.4542 43.4537 26.8213 43.72C26.7349 43.7565 26.6465 43.7883 26.5566 43.8152ZM25.2697 39.5179C25.207 39.5368 25.1454 39.559 25.0851 39.5844C24.6398 39.7721 24.2854 40.126 24.0973 40.5708C23.9093 41.0157 23.9025 41.5163 24.0784 41.9661C24.2544 42.4158 24.5991 42.7792 25.0391 42.9788C25.4792 43.1784 25.9799 43.1984 26.4345 43.0346C26.8891 42.8708 27.2618 42.5361 27.4731 42.1018C27.6844 41.6675 27.7177 41.168 27.5659 40.7095C27.414 40.2511 27.0891 39.87 26.6602 39.6474C26.2313 39.4249 25.7324 39.3784 25.2697 39.5179Z" fill="#292A2E"/>
<path d="M26.5518 37.7555C25.9297 37.9411 25.2608 37.8904 24.6738 37.613C24.0868 37.3357 23.6232 36.8514 23.372 36.2531C23.1706 35.7735 23.116 35.245 23.2153 34.7344C23.3145 34.2238 23.563 33.7541 23.9294 33.3846C24.2958 33.0152 24.7637 32.7626 25.2738 32.6588C25.7838 32.5551 26.3133 32.6048 26.7951 32.8017C27.2769 32.9986 27.6894 33.3338 27.9806 33.765C28.2717 34.1962 28.4283 34.7039 28.4306 35.224C28.4329 35.7442 28.2808 36.2533 27.9935 36.687C27.7062 37.1208 27.2966 37.4596 26.8165 37.6608C26.73 37.6969 26.6416 37.7285 26.5518 37.7555ZM25.2665 33.4579C25.203 33.4769 25.1406 33.4992 25.0795 33.5248C24.6255 33.7154 24.2658 34.0782 24.0794 34.5337C23.893 34.9892 23.8953 35.5 24.0857 35.9538C24.2245 36.2846 24.4563 36.5681 24.753 36.7701C25.0497 36.972 25.3986 37.0837 25.7576 37.0917C26.1165 37.0997 26.47 37.0036 26.7754 36.815C27.0808 36.6264 27.325 36.3535 27.4784 36.0291C27.6319 35.7048 27.6879 35.343 27.6399 34.9875C27.5919 34.632 27.4418 34.2981 27.2078 34.026C26.9738 33.754 26.6659 33.5555 26.3214 33.4546C25.9768 33.3537 25.6104 33.3551 25.2665 33.4579Z" fill="#292A2E"/>
<path d="M25.8009 40.4904C27.7015 40.4904 29.2423 39.4621 29.2423 38.1937C29.2423 36.9253 27.7015 35.897 25.8009 35.897C23.9002 35.897 22.3594 36.9253 22.3594 38.1937C22.3594 39.4621 23.9002 40.4904 25.8009 40.4904Z" fill="white"/>
<path d="M27.3241 40.6593C26.8307 40.805 26.3188 40.8785 25.8043 40.8774C23.657 40.8774 21.9727 39.7018 21.9727 38.1971C21.9727 36.6924 23.652 35.5125 25.7985 35.5102C26.7343 35.4922 27.655 35.7476 28.4477 36.2449C28.8037 36.4302 29.1021 36.7095 29.3104 37.0524C29.5188 37.3952 29.6291 37.7885 29.6295 38.1896C29.6299 38.5908 29.5202 38.9843 29.3125 39.3275C29.1047 39.6707 28.8068 39.9505 28.4512 40.1365C28.1035 40.3655 27.7236 40.5417 27.3241 40.6593ZM24.5135 36.4677C23.4794 36.7771 22.7463 37.4449 22.7467 38.1951C22.7467 39.2304 24.1466 40.104 25.8043 40.1024C26.5873 40.1189 27.3582 39.9071 28.0227 39.493C28.272 39.3783 28.483 39.1946 28.6309 38.9636C28.7788 38.7326 28.8573 38.4641 28.857 38.19C28.8568 37.9158 28.7778 37.6474 28.6295 37.4167C28.4812 37.186 28.2698 37.0027 28.0204 36.8884C27.3554 36.4751 26.5841 36.2647 25.8012 36.2828C25.3652 36.2817 24.9315 36.344 24.5135 36.4677Z" fill="#292A2E"/>
<path d="M26.6446 40.4202L26.5634 35.9535L25.4518 35.9087L25.374 40.4724L26.6446 40.4202Z" fill="#292A2E"/>
<path d="M21.2352 39.1656C21.4314 39.1656 21.5905 39.0066 21.5905 38.8106C21.5905 38.6145 21.4314 38.4556 21.2352 38.4556C21.039 38.4556 20.8799 38.6145 20.8799 38.8106C20.8799 39.0066 21.039 39.1656 21.2352 39.1656Z" fill="#292A2E"/>
<path d="M21.5125 37.2657C21.7087 37.2657 21.8678 37.1067 21.8678 36.9107C21.8678 36.7146 21.7087 36.5557 21.5125 36.5557C21.3163 36.5557 21.1572 36.7146 21.1572 36.9107C21.1572 37.1067 21.3163 37.2657 21.5125 37.2657Z" fill="#292A2E"/>
<path d="M136.477 51.3432C136.394 51.3432 136.314 51.3166 136.247 51.2674C136.18 51.2182 136.131 51.1489 136.107 51.0698C134.823 46.2798 134.481 41.2866 135.098 36.3664C136.099 29.1734 140.069 19.7332 153.301 15.5996C155.162 15.0015 157.072 14.564 159.008 14.2921C159.632 10.4013 162.004 6.18063 167.308 3.26864C179.91 -3.65053 188.423 2.55746 188.508 2.62089C188.59 2.68242 188.644 2.77404 188.658 2.87557C188.673 2.9771 188.647 3.08024 188.585 3.16229C188.523 3.24434 188.432 3.29859 188.33 3.31309C188.228 3.3276 188.125 3.30117 188.043 3.23964C187.963 3.17931 179.827 -2.72241 167.681 3.94694C162.725 6.66828 160.456 10.5741 159.811 14.2C165.647 13.6257 168.442 15.5709 169.696 17.0401C170.472 17.9236 170.971 19.0157 171.13 20.1804C171.289 21.3451 171.102 22.5308 170.592 23.5899C170.188 24.446 169.534 25.1596 168.717 25.6367C167.899 26.1137 166.955 26.3317 166.011 26.2618C162.752 26.0707 160.055 23.3312 159.14 19.2823C158.839 17.9117 158.759 16.5017 158.903 15.1057C157.081 15.3672 155.285 15.78 153.532 16.3397C143.22 19.5615 137.277 26.3364 135.865 36.475C135.26 41.2836 135.593 46.1637 136.847 50.8455C136.865 50.9033 136.869 50.9645 136.858 51.0241C136.848 51.0837 136.824 51.1401 136.788 51.1887C136.752 51.2373 136.705 51.2769 136.651 51.3041C136.597 51.3313 136.538 51.3455 136.477 51.3455V51.3432ZM159.692 15.009C159.531 16.3784 159.599 17.765 159.896 19.1117C160.732 22.8157 163.15 25.319 166.056 25.4895C166.848 25.5462 167.639 25.3624 168.325 24.9621C169.011 24.5618 169.559 23.9638 169.899 23.2465C170.341 22.323 170.502 21.2897 170.361 20.2755C170.22 19.2613 169.784 18.311 169.106 17.5428C167.296 15.4209 163.994 14.5639 159.692 15.009Z" fill="#292A2E"/>
<path d="M197.523 6.52926C197.002 6.52816 196.491 6.37981 196.051 6.10131C195.61 5.82282 195.258 5.42553 195.033 4.95531C194.809 4.48509 194.723 3.9611 194.784 3.44382C194.845 2.92654 195.051 2.43705 195.378 2.03186C195.706 1.62666 196.142 1.32226 196.635 1.15381C197.128 0.985351 197.659 0.959698 198.166 1.07981C198.673 1.19992 199.136 1.4609 199.502 1.83263C199.867 2.20436 200.119 2.67168 200.23 3.18066C200.317 3.58413 200.312 4.00188 200.216 4.40332C200.121 4.80476 199.936 5.17973 199.677 5.50076C199.417 5.8218 199.089 6.08077 198.716 6.25873C198.344 6.43669 197.936 6.52912 197.523 6.52926ZM197.529 1.7788C197.117 1.77879 196.716 1.90636 196.38 2.14392C196.044 2.38148 195.79 2.71734 195.653 3.10521C195.515 3.49308 195.502 3.91387 195.615 4.30957C195.727 4.70527 195.959 5.05641 196.28 5.3146C196.6 5.57278 196.993 5.7253 197.404 5.75112C197.815 5.77695 198.223 5.67482 198.574 5.4588C198.924 5.24278 199.199 4.92352 199.36 4.545C199.521 4.16649 199.561 3.74737 199.473 3.3454C199.379 2.90066 199.134 2.50202 198.78 2.21666C198.426 1.9313 197.984 1.77666 197.529 1.7788Z" fill="#292A2E"/>
<path d="M196.358 12.8411C195.648 12.8411 194.966 12.5693 194.451 12.0817C193.936 11.5942 193.628 10.9279 193.59 10.2201C193.552 9.51237 193.787 8.81695 194.246 8.27704C194.706 7.73712 195.355 7.3938 196.06 7.31775C196.766 7.24171 197.473 7.43872 198.038 7.86824C198.602 8.29776 198.98 8.92709 199.094 9.62668C199.208 10.3263 199.049 11.0429 198.65 11.629C198.251 12.2151 197.642 12.6261 196.949 12.7773C196.755 12.8197 196.557 12.8411 196.358 12.8411ZM196.367 8.09029C196.224 8.09035 196.081 8.10577 195.942 8.1363C195.447 8.2448 195.013 8.5385 194.729 8.95697C194.445 9.37544 194.332 9.88686 194.413 10.386C194.495 10.8852 194.765 11.334 195.168 11.6403C195.571 11.9466 196.076 12.087 196.579 12.0326C197.082 11.9782 197.545 11.7332 197.873 11.3479C198.201 10.9626 198.369 10.4664 198.342 9.96138C198.315 9.45634 198.095 8.98089 197.728 8.63284C197.36 8.28479 196.874 8.09062 196.367 8.09029Z" fill="#292A2E"/>
<path d="M200.515 7.65885C200.758 6.33795 199.352 4.9713 197.372 4.60637C195.393 4.24144 193.591 5.01641 193.347 6.33731C193.103 7.6582 194.51 9.02484 196.489 9.38977C198.468 9.75471 200.271 8.97974 200.515 7.65885Z" fill="white"/>
<path d="M197.464 9.86742C197.113 9.86686 196.763 9.8345 196.419 9.77075C195.445 9.60939 194.54 9.16775 193.814 8.49999C193.497 8.22914 193.252 7.88262 193.104 7.49247C192.956 7.10233 192.908 6.68114 192.966 6.26785C193.06 5.86118 193.255 5.48466 193.533 5.17307C193.81 4.86148 194.162 4.62486 194.556 4.48507C195.476 4.13764 196.475 4.04831 197.442 4.22676C198.41 4.4052 199.311 4.84462 200.047 5.4975C200.364 5.76835 200.609 6.11487 200.757 6.50502C200.905 6.89516 200.952 7.31635 200.895 7.72964C200.801 8.13631 200.606 8.51283 200.328 8.82442C200.051 9.13601 199.699 9.37263 199.305 9.51242C198.722 9.75373 198.095 9.8745 197.464 9.86742ZM196.395 4.90273C195.869 4.89605 195.348 4.99563 194.862 5.19548C194.587 5.28746 194.339 5.44653 194.141 5.65829C193.943 5.87004 193.801 6.1278 193.728 6.40823C193.696 6.69627 193.736 6.9877 193.846 7.25611C193.955 7.52452 194.13 7.76144 194.354 7.94543C194.98 8.4914 195.741 8.85901 196.559 9.00972C197.376 9.16043 198.218 9.08869 198.998 8.80201C199.273 8.71003 199.521 8.55096 199.719 8.3392C199.917 8.12745 200.059 7.86969 200.132 7.58926C200.164 7.3012 200.124 7.00971 200.014 6.74126C199.905 6.47282 199.73 6.23591 199.506 6.05206C198.89 5.49045 198.123 5.12048 197.3 4.98742C197.002 4.93195 196.699 4.90361 196.396 4.90273H196.395Z" fill="#292A2E"/>
<path d="M196.483 4.51758L195.705 9.18373L196.853 9.44515L197.816 4.70823L196.483 4.51758Z" fill="#292A2E"/>
<path d="M201.15 9.53743C201.357 9.53743 201.526 9.36913 201.526 9.16154C201.526 8.95394 201.357 8.78564 201.15 8.78564C200.942 8.78564 200.773 8.95394 200.773 9.16154C200.773 9.36913 200.942 9.53743 201.15 9.53743Z" fill="#292A2E"/>
<path d="M201.805 7.61311C202.013 7.61311 202.181 7.44482 202.181 7.23722C202.181 7.02962 202.013 6.86133 201.805 6.86133C201.597 6.86133 201.429 7.02962 201.429 7.23722C201.429 7.44482 201.597 7.61311 201.805 7.61311Z" fill="#292A2E"/>
</svg>
